PathFileType	4	(X/Y/Z)	Kaydara	
DataRate	CameraRate	NumFrames	NumMarkers	Units	OrigDataRate	OrigDataStartFrame	OrigNumFrames	
120.00	120.00	10	29	mm	120.00	2136	2847	
Frame#	Time	Pelvis			Left_hip			Left_knee			Left_ankle			Left_foot			Left_foot_End			Right_hip			Right_knee			Right_ankle			Right_foot			Right_foot_End			Spine1			Spine2			Spine3			Neck			Head			Head_End			Left_collar			Left_shoulder			Left_elbow			Left_wrist			Left_palm			Left_palm_End			Right_collar			Right_shoulder			Right_elbow			Right_wrist			Right_palm			Right_palm_End			
		X1	Y1	Z1	X2	Y2	Z2	X3	Y3	Z3	X4	Y4	Z4	X5	Y5	Z5	X6	Y6	Z6	X7	Y7	Z7	X8	Y8	Z8	X9	Y9	Z9	X10	Y10	Z10	X11	Y11	Z11	X12	Y12	Z12	X13	Y13	Z13	X14	Y14	Z14	X15	Y15	Z15	X16	Y16	Z16	X17	Y17	Z17	X18	Y18	Z18	X19	Y19	Z19	X20	Y20	Z20	X21	Y21	Z21	X22	Y22	Z22	X23	Y23	Z23	X24	Y24	Z24	X25	Y25	Z25	X26	Y26	Z26	X27	Y27	Z27	X28	Y28	Z28	X29	Y29	Z29	

2136	17.792	679.12003	930.13000	-911.88004	591.82745	877.83630	-899.26362	641.79901	520.10553	-1043.63274	808.79794	248.20710	-757.23506	725.24350	153.25202	-822.16803	725.24350	153.25202	-822.16803	697.65504	828.78505	-874.47723	818.96378	505.19026	-1046.76094	894.41182	118.60521	-895.57937	959.29118	44.92424	-1007.00998	959.29118	44.92424	-1007.00998	722.02718	1045.80758	-928.50373	772.49866	1173.47484	-943.19431	799.82763	1221.47610	-953.28968	913.85648	1399.88886	-971.08810	952.92953	1468.91419	-1036.37269	952.92953	1468.91419	-1036.37269	791.76261	1356.53413	-967.02549	700.83735	1452.56037	-972.25832	532.59522	1272.66136	-1045.03738	379.85120	1186.32363	-1245.11726	339.75658	1142.98646	-1311.34310	339.75658	1142.98646	-1311.34310	924.57252	1285.31202	-931.91222	1046.00648	1271.97107	-919.12945	956.64069	1027.41474	-951.62890	822.70866	1070.40985	-1181.22688	801.74014	1097.58333	-1264.14940	801.74014	1097.58333	-1264.14940 
2137	17.800	679.86000	930.42999	-912.26997	592.59298	878.11214	-899.57714	642.14186	520.26708	-1043.80866	808.91219	248.25091	-757.38958	725.36290	153.29233	-822.32407	725.36290	153.29233	-822.32407	698.45626	829.08776	-874.89020	818.25053	504.72485	-1046.78876	893.34196	118.22608	-895.20958	958.24501	44.54414	-1006.62575	958.24501	44.54414	-1006.62575	722.72098	1046.12006	-928.92579	773.14913	1173.80256	-943.63280	800.46256	1221.81381	-953.72268	914.45653	1400.25715	-971.43766	953.49947	1469.33165	-1036.68827	953.49947	1469.33165	-1036.68827	792.37107	1356.87936	-967.36867	701.51957	1452.98150	-972.48799	533.29077	1273.02081	-1045.14525	380.45664	1186.54346	-1245.09599	340.34498	1143.15019	-1311.27475	340.34498	1143.15019	-1311.27475	925.20281	1285.65675	-932.33908	1046.65450	1272.35582	-919.68374	957.09792	1027.83498	-951.92406	823.26002	1070.68212	-1181.60456	801.95682	1097.76738	-1264.47063	801.95682	1097.76738	-1264.47063 
2138	17.808	680.46997	930.72998	-912.61002	593.22450	878.39308	-899.84775	642.29577	520.42752	-1043.94348	808.88895	248.31818	-757.50982	725.33652	153.36110	-822.44246	725.33652	153.36110	-822.44246	699.11915	829.38623	-875.26075	817.97822	504.57720	-1046.96602	892.82866	118.12448	-895.15044	957.73847	44.44191	-1006.56226	957.73847	44.44191	-1006.56226	723.29339	1046.43085	-929.28738	773.68288	1174.12806	-943.99915	800.97988	1222.15094	-954.07819	914.91937	1400.63965	-971.68634	953.93780	1469.76769	-1036.89489	953.93780	1469.76769	-1036.89489	792.84714	1357.22263	-967.63861	702.01007	1453.34373	-972.65697	533.77392	1273.30110	-1045.09389	380.92190	1186.65529	-1244.95801	340.82470	1143.19901	-1311.10418	340.82470	1143.19901	-1311.10418	925.70201	1286.01784	-932.66056	1047.16428	1272.74915	-920.07301	957.45583	1028.24316	-952.00222	823.77183	1070.78849	-1181.82841	802.16965	1097.77336	-1264.64982	802.16965	1097.77336	-1264.64982 
2139	17.817	681.01997	930.96001	-912.94998	593.79662	878.59560	-900.14945	642.53809	520.53617	-1044.12383	809.06664	248.39040	-757.68719	725.51166	153.43441	-822.61814	725.51166	153.43441	-822.61814	699.71981	829.60979	-875.64359	818.00139	504.49188	-1047.16295	892.72602	118.08312	-895.17358	957.64177	44.40444	-1006.58450	957.64177	44.40444	-1006.58450	723.80174	1046.67758	-929.61838	774.14767	1174.39459	-944.30744	801.42787	1222.43080	-954.36834	915.30662	1400.96980	-971.85919	954.31096	1470.14821	-1037.02274	954.31096	1470.14821	-1037.02274	793.24923	1357.50651	-967.86104	702.39952	1453.61514	-972.88949	534.15388	1273.57140	-1045.30160	381.33184	1186.75867	-1245.11620	341.28161	1143.23708	-1311.24790	341.28161	1143.23708	-1311.24790	926.12209	1286.33183	-932.89002	1047.58674	1273.05857	-920.33038	957.65171	1028.59161	-951.91919	823.99424	1070.82247	-1181.81881	802.15952	1097.68472	-1264.61909	802.15952	1097.68472	-1264.61909 
2140	17.825	681.51001	931.15997	-913.28003	594.31444	878.75341	-900.46276	642.71879	520.59553	-1044.30595	809.18868	248.44036	-757.84415	725.63519	153.48340	-822.77559	725.63519	153.48340	-822.77559	700.26875	829.80412	-876.01858	817.97676	504.41289	-1047.41418	892.55883	118.05096	-895.23583	957.49136	44.37603	-1006.63946	957.49136	44.37603	-1006.63946	724.23520	1046.90203	-929.92357	774.52283	1174.64540	-944.58302	801.78284	1222.69584	-954.63074	915.59113	1401.28614	-972.05629	954.57810	1470.49738	-1037.19536	954.57810	1470.49738	-1037.19536	793.55097	1357.77063	-968.10015	702.68500	1453.86128	-973.17818	534.47896	1273.79644	-1045.62981	381.75044	1186.73280	-1245.40674	341.75231	1143.12605	-1311.51386	341.75231	1143.12605	-1311.51386	926.44415	1286.64537	-933.10582	1047.91232	1273.39661	-920.55431	957.81912	1028.93768	-951.75213	824.32910	1070.68248	-1181.83773	802.35328	1097.36916	-1264.65745	802.35328	1097.36916	-1264.65745 
2141	17.833	682.11998	931.38000	-913.63998	594.95177	878.93229	-900.80491	643.01462	520.68045	-1044.52856	809.49066	248.55542	-758.04170	725.93814	153.60049	-822.97736	725.93814	153.60049	-822.97736	700.93821	830.01140	-876.44326	817.92500	504.31202	-1047.74733	892.47279	118.00409	-895.41519	957.41123	44.33853	-1006.82157	957.41123	44.33853	-1006.82157	724.79094	1047.14780	-930.24355	775.02483	1174.91734	-944.85912	802.26786	1222.98102	-954.88955	916.01924	1401.61520	-972.23681	955.00959	1470.85199	-1037.34669	955.00959	1470.85199	-1037.34669	793.99311	1358.05453	-968.34553	703.06950	1454.08724	-973.48753	534.76782	1274.05993	-1045.81024	382.03304	1186.99105	-1245.58010	342.05759	1143.29976	-1311.64511	342.05759	1143.29976	-1311.64511	926.89530	1286.97337	-933.29585	1048.36342	1273.72514	-920.74332	958.22295	1029.25561	-951.72082	824.71157	1070.67165	-1181.85344	802.72505	1097.23604	-1264.70963	802.72505	1097.23604	-1264.70963 
2142	17.842	682.63000	931.55998	-913.96004	595.49067	879.06503	-901.12203	643.26645	520.73308	-1044.74163	809.81188	248.67249	-758.23389	726.26534	153.70787	-823.16308	726.26534	153.70787	-823.16308	701.50833	830.18067	-876.82300	817.89159	504.20383	-1048.01037	892.35238	117.97075	-895.44607	957.32068	44.30717	-1006.83634	957.32068	44.30717	-1006.83634	725.24136	1047.35628	-930.51785	775.41467	1175.15537	-945.08308	802.63915	1223.23403	-955.09204	916.32164	1401.92148	-972.34208	955.33051	1471.18147	-1037.41620	955.33051	1471.18147	-1037.41620	794.31262	1358.30427	-968.54897	703.33080	1454.27636	-973.79209	534.93939	1274.35751	-1046.17578	382.20313	1187.28931	-1245.94481	342.24198	1143.48424	-1311.94308	342.24198	1143.48424	-1311.94308	927.21992	1287.28307	-933.39728	1048.67999	1274.02466	-920.77780	958.58183	1029.50492	-951.48090	825.16619	1070.58697	-1181.72888	803.34622	1097.06795	-1264.65577	803.34622	1097.06795	-1264.65577 
2143	17.850	682.97997	931.69998	-914.19998	595.88951	879.12596	-901.35383	643.64347	520.72833	-1044.81672	810.17505	248.66983	-758.29895	726.63474	153.70003	-823.22857	726.63474	153.70003	-823.22857	701.95860	830.31192	-877.13804	817.82972	504.09562	-1048.21664	892.27356	117.88412	-895.58945	957.24651	44.22876	-1006.98244	957.24651	44.22876	-1006.98244	725.48927	1047.54158	-930.70316	775.56817	1175.38486	-945.20542	802.77052	1223.48188	-955.18627	916.40592	1402.21191	-972.30488	955.44203	1471.50241	-1037.33016	955.44203	1471.50241	-1037.33016	794.40877	1358.55210	-968.62151	703.39686	1454.49248	-973.92230	534.93393	1274.68736	-1046.42210	382.25288	1187.34419	-1246.11328	342.30805	1143.40504	-1312.03226	342.30805	1143.40504	-1312.03226	927.31141	1287.56900	-933.37534	1048.75985	1274.31873	-920.63591	958.86156	1029.68901	-951.04734	825.56783	1070.58699	-1181.39867	804.05193	1097.00200	-1264.42599	804.05193	1097.00200	-1264.42599 
2144	17.858	683.08998	931.79001	-914.48997	596.03432	879.16460	-901.61840	643.83625	520.66259	-1044.80426	810.36437	248.61760	-758.27165	726.82929	153.64862	-823.20920	726.82929	153.64862	-823.20920	702.14399	830.38774	-877.50564	817.69820	503.97013	-1048.41452	892.12652	117.76668	-895.75939	957.09635	44.11014	-1007.15343	957.09635	44.11014	-1007.15343	725.53066	1047.66319	-930.94798	775.54955	1175.53699	-945.38808	802.73964	1223.64808	-955.33450	916.35909	1402.40581	-972.26875	955.42831	1471.74294	-1037.22440	955.42831	1471.74294	-1037.22440	794.36622	1358.72470	-968.69792	703.35976	1454.66898	-974.02182	534.81705	1274.91744	-1046.46902	382.22193	1187.21180	-1246.06699	342.30586	1143.13530	-1311.91166	342.30586	1143.13530	-1311.91166	927.25477	1287.74221	-933.39746	1048.69227	1274.48827	-920.55789	959.18456	1029.69577	-950.81117	825.88009	1070.26212	-1181.21492	804.83138	1096.61840	-1264.38054	804.83138	1096.61840	-1264.38054 
2145	17.867	683.00003	931.83998	-914.82002	595.97966	879.16427	-901.91564	644.07332	520.55059	-1044.72367	810.65154	248.66265	-758.07114	727.11283	153.70151	-823.01550	727.11283	153.70151	-823.01550	702.13063	830.42672	-877.90543	817.62899	503.87107	-1048.58822	892.07045	117.67014	-895.93312	957.04025	44.01360	-1007.32718	957.04025	44.01360	-1007.32718	725.37154	1047.74330	-931.24405	775.32497	1175.64988	-945.62023	802.49637	1223.78066	-955.52240	916.07025	1402.59146	-972.19999	955.14110	1472.02109	-1037.05579	955.14110	1472.02109	-1037.05579	794.08873	1358.87089	-968.72583	703.09174	1454.82458	-974.04185	534.51306	1275.12340	-1046.53030	382.39573	1186.19048	-1245.94985	342.50392	1142.00391	-1311.73540	342.50392	1142.00391	-1311.73540	926.98507	1287.88418	-933.46317	1048.41054	1274.63479	-920.50571	959.36289	1029.65860	-950.62946	826.04915	1069.91660	-1181.08192	805.64716	1096.21380	-1264.42722	805.64716	1096.21380	-1264.42722 
